<svg viewBox="0 0 800 600" xmlns="http://www.w3.org/2000/svg">
  <defs>
    <linearGradient id="grad1" x1="0%" y1="0%" x2="100%" y2="100%">
      <stop offset="0%" style="stop-color:#2d0a2f;stop-opacity:0.8" />
      <stop offset="100%" style="stop-color:#2d0a2f;stop-opacity:0.2" />
    </linearGradient>
  </defs>
  
  <!-- Background -->
  <rect width="100%" height="100%" fill="url(#grad1)" />
  
  <!-- Design Elements -->
  <!-- Color Palette Circles -->
  <circle cx="100" cy="100" r="40" fill="#ff64ce" opacity="0.3" />
  <circle cx="170" cy="100" r="40" fill="#d892c2" opacity="0.3" />
  <circle cx="240" cy="100" r="40" fill="#f5cce6" opacity="0.3" />
  <circle cx="310" cy="100" r="40" fill="#9a0d7c" opacity="0.3" />
  
  <!-- Pen Tool Path -->
  <path d="M100,300 C150,200 250,350 300,250 S400,350 450,250 S550,350 600,250" 
    stroke="#ff64ce" fill="none" stroke-width="3" opacity="0.3" />
  
  <!-- Vector Nodes -->
  <circle cx="100" cy="300" r="5" fill="#ff64ce" opacity="0.6" />
  <circle cx="300" cy="250" r="5" fill="#ff64ce" opacity="0.6" />
  <circle cx="450" cy="250" r="5" fill="#ff64ce" opacity="0.6" />
  <circle cx="600" cy="250" r="5" fill="#ff64ce" opacity="0.6" />
  
  <!-- Bezier Handle Lines -->
  <line x1="100" y1="300" x2="150" y2="200" stroke="#ff64ce" stroke-width="1" opacity="0.2" />
  <line x1="300" y1="250" x2="250" y2="350" stroke="#ff64ce" stroke-width="1" opacity="0.2" />
  <line x1="300" y1="250" x2="350" y2="150" stroke="#ff64ce" stroke-width="1" opacity="0.2" />
  <line x1="450" y1="250" x2="400" y2="350" stroke="#ff64ce" stroke-width="1" opacity="0.2" />
  <line x1="450" y1="250" x2="500" y2="150" stroke="#ff64ce" stroke-width="1" opacity="0.2" />
  <line x1="600" y1="250" x2="550" y2="350" stroke="#ff64ce" stroke-width="1" opacity="0.2" />
  
  <!-- Design Tool Icons -->
  <!-- Pencil -->
  <g transform="translate(650, 100) scale(0.7)">
    <rect x="0" y="0" width="10" height="50" fill="#f5cce6" opacity="0.5" transform="rotate(45)" />
    <polygon points="0,0 10,0 5,10" fill="#f5cce6" opacity="0.5" transform="translate(7.07, -7.07) rotate(45)" />
  </g>
  
  <!-- Paint Brush -->
  <g transform="translate(700, 100) scale(0.7)">
    <rect x="0" y="0" width="10" height="40" fill="#f5cce6" opacity="0.5" transform="rotate(30)" />
    <ellipse cx="5" cy="0" rx="7" ry="12" fill="#f5cce6" opacity="0.5" transform="translate(20, -5) rotate(30)" />
  </g>
  
  <!-- Color Swatches -->
  <rect x="650" y="150" width="25" height="25" fill="#ff64ce" opacity="0.5" />
  <rect x="680" y="150" width="25" height="25" fill="#d892c2" opacity="0.5" />
  <rect x="710" y="150" width="25" height="25" fill="#f5cce6" opacity="0.5" />
  <rect x="650" y="180" width="25" height="25" fill="#9a0d7c" opacity="0.5" />
  <rect x="680" y="180" width="25" height="25" fill="#560945" opacity="0.5" />
  <rect x="710" y="180" width="25" height="25" fill="#350529" opacity="0.5" />
  
  <!-- Abstract Shapes -->
  <circle cx="400" cy="450" r="80" fill="none" stroke="#ff64ce" stroke-width="2" opacity="0.2" />
  <rect x="360" y="410" width="80" height="80" fill="none" stroke="#d892c2" stroke-width="2" opacity="0.2" />
  <polygon points="400,390 440,450 400,510 360,450" fill="none" stroke="#f5cce6" stroke-width="2" opacity="0.2" />
</svg>
